<svg xmlns="http://www.w3.org/2000/svg" viewBox="0 0 128 128"><path d="M64.00 0.00 A64 64 0 0 1 96.00 8.57 L77.50 40.62 A27 27 0 0 0 64.00 37.00 Z" fill="#f42f2f" stroke="#FFFFFF" stroke-width="1.8" stroke-linejoin="round"/><path d="M96.00 8.57 A64 64 0 0 1 119.43 32.00 L87.38 50.50 A27 27 0 0 0 77.50 40.62 Z" fill="#f4912f" stroke="#FFFFFF" stroke-width="1.8" stroke-linejoin="round"/><path d="M119.43 32.00 A64 64 0 0 1 128.00 64.00 L91.00 64.00 A27 27 0 0 0 87.38 50.50 Z" fill="#f4f42f" stroke="#FFFFFF" stroke-width="1.8" stroke-linejoin="round"/><path d="M128.00 64.00 A64 64 0 0 1 119.43 96.00 L87.38 77.50 A27 27 0 0 0 91.00 64.00 Z" fill="#91f42f" stroke="#FFFFFF" stroke-width="1.8" stroke-linejoin="round"/><path d="M119.43 96.00 A64 64 0 0 1 96.00 119.43 L77.50 87.38 A27 27 0 0 0 87.38 77.50 Z" fill="#2ff42f" stroke="#FFFFFF" stroke-width="1.8" stroke-linejoin="round"/><path d="M96.00 119.43 A64 64 0 0 1 64.00 128.00 L64.00 91.00 A27 27 0 0 0 77.50 87.38 Z" fill="#2ff491" stroke="#FFFFFF" stroke-width="1.8" stroke-linejoin="round"/><path d="M64.00 128.00 A64 64 0 0 1 32.00 119.43 L50.50 87.38 A27 27 0 0 0 64.00 91.00 Z" fill="#2ff4f4" stroke="#FFFFFF" stroke-width="1.8" stroke-linejoin="round"/><path d="M32.00 119.43 A64 64 0 0 1 8.57 96.00 L40.62 77.50 A27 27 0 0 0 50.50 87.38 Z" fill="#2f91f4" stroke="#FFFFFF" stroke-width="1.8" stroke-linejoin="round"/><path d="M8.57 96.00 A64 64 0 0 1 0.00 64.00 L37.00 64.00 A27 27 0 0 0 40.62 77.50 Z" fill="#2f2ff4" stroke="#FFFFFF" stroke-width="1.8" stroke-linejoin="round"/><path d="M0.00 64.00 A64 64 0 0 1 8.57 32.00 L40.62 50.50 A27 27 0 0 0 37.00 64.00 Z" fill="#912ff4" stroke="#FFFFFF" stroke-width="1.8" stroke-linejoin="round"/><path d="M8.57 32.00 A64 64 0 0 1 32.00 8.57 L50.50 40.62 A27 27 0 0 0 40.62 50.50 Z" fill="#f42ff4" stroke="#FFFFFF" stroke-width="1.8" stroke-linejoin="round"/><path d="M32.00 8.57 A64 64 0 0 1 64.00 0.00 L64.00 37.00 A27 27 0 0 0 50.50 40.62 Z" fill="#f42f91" stroke="#FFFFFF" stroke-width="1.8" stroke-linejoin="round"/><circle cx="64" cy="64" r="28" fill="#FFFFFF" stroke="#E2E8F0" stroke-width="1.5"/></svg>